<svg xmlns="http://www.w3.org/2000/svg" viewBox="-20 0 267 282" width="32" height="32" fill="none">
  <path d="M215 53.5C174.492 52.8444 114 12 114 12C114 12 57.3262 49.161 12 53.5V156C12 212 50.3518 243.573 114 269.5C172.554 243.375 215 216 215 156V53.5Z" stroke="#00AF67" stroke-width="24" stroke-linejoin="round"/>
  <path d="M129.5 44.8857C116.683 39.1735 109.561 38.9043 97 44.8857L101.5 66.3859C110.268 62.7262 115.42 62.8783 125 66.3859L129.5 44.8857Z" fill="#37F5A7" stroke="#37F5A7" stroke-width="4" stroke-linejoin="round"/>
  <path d="M124 74C115.604 70.1632 110.896 70.0862 102.5 74L89.5 175.5L113 202.5L136.5 175.5L124 74Z" fill="#37F5A7" stroke="#37F5A7" stroke-width="4" stroke-linejoin="round"/>
</svg>
